# xmcd
#
# Track frame offsets:
#	150
#	14099
#	30297
#	40504
#	55067
#	68522
#	87806
#	99483
#	115557
#	124541
#	140458
#	153589
#
# Disc length: 2253 seconds
#
# Revision: 1
# Processed by: cddbd v1.4PL0 Copyright (c) Steve Scherf et al.
# Submitted via: EasyCDDAExtractor 5.1.0
#
DISCID=8808cb0c
DTITLE=Mike McClure - Twelve Pieces
DYEAR=2002
DGENRE=country
TTITLE0=Haunt Me No More
TTITLE1=Hotel Band
TTITLE2=In My Ears
TTITLE3=Wicked Game Of Hearts
TTITLE4=Dings
TTITLE5=The Void
TTITLE6=The Callong Chapter Two
TTITLE7=Harder To Ignore
TTITLE8=Marleigh's Song
TTITLE9=Driftin
TTITLE10=World Go Round
TTITLE11=Between Two Thieves
EXTD=
EXTT0=
EXTT1=
EXTT2=
EXTT3=
EXTT4=
EXTT5=
EXTT6=
EXTT7=
EXTT8=
EXTT9=
EXTT10=
EXTT11=
PLAYORDER=
